<svg width="33" height="32" viewBox="0 0 33 32" fill="none" xmlns="http://www.w3.org/2000/svg">
<path id="Vector" d="M32.0306 17.0071C32.6494 17.65 33 18.5214 33 19.4286C33 20.3357 32.6494 21.2071 32.0306 21.85C31.4119 22.4929 30.5731 22.8571 29.7 22.8571H3.3C2.42481 22.8571 1.58537 22.4929 0.966625 21.85C0.347875 21.2071 0 20.3357 0 19.4286C0 18.5214 0.347875 17.65 0.966625 17.0071C1.58537 16.3643 2.42481 16 3.3 16H29.7C30.5731 16 31.4119 16.3643 32.0306 17.0071ZM31.5769 25.4786C31.7831 25.6929 31.9 25.9857 31.9 26.2857V27.4286C31.9 28.5786 31.4394 29.8071 30.6144 30.6643C29.7894 31.5214 28.6069 32 27.5 32H5.5C4.33331 32 3.21406 31.5214 2.38906 30.6643C1.56337 29.8071 1.1 28.5786 1.1 27.4286V26.2857C1.1 25.9857 1.21619 25.6929 1.42244 25.4786C1.62869 25.2643 1.9085 25.1429 2.2 25.1429H30.8C31.0888 25.1429 31.3706 25.2643 31.5769 25.4786ZM2.36431 13.4857C2.05769 13.3286 1.78956 13.1071 1.57919 12.8286C1.36881 12.55 1.22306 12.2286 1.15156 11.8857C1.08006 11.5357 1.08625 11.1786 1.16806 10.8357C2.67988 4.64429 8.97188 0 16.5 0C24.0281 0 30.3188 4.64429 31.8313 10.8357C31.9138 11.1786 31.9206 11.5357 31.845 11.8857C31.7763 12.2286 31.6319 12.55 31.4188 12.8286C31.1506 13.1071 30.9444 13.3286 30.635 13.4857C30.3325 13.6357 29.9956 13.7143 29.6519 13.7143H3.34606C3.00644 13.7143 2.67025 13.6357 2.36431 13.4857ZM24.5231 6.05C24.3169 6.26429 24.2 6.55714 24.2 6.85714C24.2 7.08571 24.2619 7.30714 24.3856 7.49286C24.5094 7.67857 24.6194 7.82857 24.8806 7.91429C25.08 7.93571 25.3 8.02143 25.5131 7.97857C25.7263 7.93571 25.9256 7.82857 26.0769 7.66429C26.235 7.50714 26.3381 7.3 26.3794 7.07857C26.4206 6.85714 26.3381 6.62857 26.3175 6.42143C26.235 6.15 26.0906 6.03571 25.9119 5.90714C25.7331 5.77857 25.52 5.65 25.3 5.65C25.0113 5.65 24.7294 5.83571 24.5231 6.05ZM15.7231 3.76357C15.5169 3.97786 15.4 4.26857 15.4 4.57143C15.4 4.79714 15.4619 5.02143 15.5856 5.20714C15.7094 5.39286 15.8194 5.54286 16.0806 5.62857C16.28 5.65 16.5 5.73571 16.7131 5.69286C16.9263 5.65 17.1256 5.54286 17.2769 5.37857C17.435 5.22143 17.5381 5.01429 17.5794 4.79429C17.6206 4.57286 17.5381 4.34286 17.5175 4.13429C17.435 3.925 17.2906 3.74643 17.1119 3.62143C16.9331 3.49571 16.72 3.36429 16.5 3.36429C16.2113 3.36429 15.9294 3.54929 15.7231 3.76357ZM6.92312 6.05C6.71688 6.26429 6.6 6.55714 6.6 6.85714C6.6 7.08571 6.66187 7.30714 6.78562 7.49286C6.90937 7.67857 7.01938 7.82857 7.28063 7.91429C7.48 7.93571 7.7 8.02143 7.91313 7.97857C8.12625 7.93571 8.32563 7.82857 8.47688 7.66429C8.635 7.50714 8.73812 7.3 8.77938 7.07857C8.82063 6.85714 8.73813 6.62857 8.7175 6.42143C8.635 6.15 8.49062 6.03571 8.31187 5.90714C8.13312 5.77857 7.92 5.65 7.7 5.65C7.41125 5.65 7.12937 5.83571 6.92312 6.05Z" fill="#FF9A3D"/>
</svg>
