<svg width="32" height="44" viewBox="0 0 32 44" fill="none" xmlns="http://www.w3.org/2000/svg">
<g id="Group">
<path id="Vector" d="M2 14H30" stroke="#FF9A3D" stroke-width="4" stroke-linecap="round"/>
<path id="Vector_2" d="M6.153 16.142C6.1335 15.8681 6.17062 15.5931 6.26205 15.3341C6.35347 15.0752 6.49725 14.8379 6.68441 14.6369C6.87157 14.4359 7.09811 14.2757 7.34991 14.1661C7.60172 14.0565 7.87339 14 8.148 14H23.852C24.1266 14 24.3983 14.0565 24.6501 14.1661C24.9019 14.2757 25.1284 14.4359 25.3156 14.6369C25.5027 14.8379 25.6465 15.0752 25.7379 15.3341C25.8294 15.5931 25.8665 15.8681 25.847 16.142L24.133 40.142C24.0971 40.6466 23.8713 41.1188 23.5011 41.4636C23.1309 41.8083 22.6439 42 22.138 42H9.862C9.35614 42 8.86906 41.8083 8.49888 41.4636C8.1287 41.1188 7.90291 40.6466 7.867 40.142L6.153 16.142V16.142Z" stroke="#FF9A3D" stroke-width="4"/>
<path id="Vector_3" d="M16 8V4C16 3.46957 16.2107 2.96086 16.5858 2.58579C16.9609 2.21071 17.4696 2 18 2H21" stroke="#FF9A3D" stroke-width="4" stroke-linecap="round"/>
<path id="Vector_4" d="M6.722 9.671C6.79985 9.20418 7.04072 8.78009 7.40179 8.47414C7.76286 8.16818 8.22073 8.00018 8.694 8H23.306C23.7794 7.99994 24.2375 8.16784 24.5988 8.47381C24.9601 8.77979 25.2011 9.20401 25.279 9.671L26 14H6L6.722 9.671Z" stroke="#FF9A3D" stroke-width="4"/>
</g>
</svg>
